<svg width="46" height="47" viewBox="0 0 46 47" fill="none" xmlns="http://www.w3.org/2000/svg">
<path d="M27.276 27.1353H18.7287C18.0134 27.1353 17.4336 27.7151 17.4336 28.4303V45.2013C17.4336 45.9166 18.0134 46.4964 18.7287 46.4964H27.276C27.9913 46.4964 28.5711 45.9166 28.5711 45.2013V28.4303C28.5711 27.7151 27.9913 27.1353 27.276 27.1353ZM25.981 43.9063H20.0237V29.7254H25.981V43.9063Z" fill="black"/>
<path d="M44.2414 16.969H35.6292C34.9139 16.969 34.3341 17.5488 34.3341 18.2641V45.2014C34.3341 45.9166 34.9139 46.4964 35.6292 46.4964H44.2414C44.9566 46.4964 45.5364 45.9166 45.5364 45.2014V18.2641C45.5364 17.5489 44.9566 16.969 44.2414 16.969ZM42.9463 43.9063H36.9242V19.5591H42.9463V43.9063Z" fill="black"/>
<path d="M10.3756 33.4163H1.76345C1.04818 33.4163 0.468384 33.9961 0.468384 34.7113V45.2014C0.468384 45.9166 1.04818 46.4964 1.76345 46.4964H10.3756C11.0909 46.4964 11.6707 45.9166 11.6707 45.2014V34.7113C11.6707 33.9962 11.0909 33.4163 10.3756 33.4163ZM9.08058 43.9063H3.05851V36.0064H9.08058V43.9063Z" fill="black"/>
<path d="M45.6661 1.29876C45.4692 1.02733 45.1593 0.860507 44.8243 0.845511L33.0392 0.00370026C32.324 -0.0499664 31.7006 0.486452 31.647 1.20159C31.5933 1.91686 32.1296 2.54016 32.8449 2.59383L41.1858 3.16024L25.8516 15.156L14.1313 5.96107C13.6309 5.5647 12.9163 5.59222 12.4477 6.02577L0.4037 17.5517C-0.108302 18.0374 -0.137057 18.8438 0.339003 19.3648C0.570029 19.6647 0.932186 19.8337 1.31033 19.8181C1.65191 19.8133 1.97776 19.6736 2.21684 19.4295L13.4192 8.68047L25.0099 17.8106C25.483 18.1894 26.1556 18.1894 26.6287 17.8106L43.2058 4.91104L42.5579 12.9543C42.5547 13.6576 43.0883 14.2472 43.7883 14.3141H43.853C44.5205 14.3174 45.0812 13.8128 45.148 13.1486L45.9899 2.20527C46.0373 1.86828 45.9164 1.52942 45.6661 1.29876Z" fill="black"/>
</svg>
