<svg width="40" height="45" viewBox="0 0 40 45" fill="none" xmlns="http://www.w3.org/2000/svg">
<path d="M30.0782 8.51651L31.3134 6.16027L28.8482 4.86779L27.615 7.22013C25.5987 6.33507 23.4074 5.77791 21.1083 5.61674V2.78351H25.5869V0H13.8462V2.78351H18.3247V5.61683C16.0257 5.77791 13.8344 6.33517 11.8181 7.22023L10.5849 4.86789L8.11967 6.16036L9.3549 8.5166C3.74465 11.9962 0 18.2103 0 25.2835C0 36.1552 8.84477 45 19.7165 45C30.5882 45 39.433 36.1552 39.433 25.2835C39.433 18.2103 35.6883 11.9962 30.0782 8.51651ZM19.7165 42.2165C10.3796 42.2165 2.78351 34.6204 2.78351 25.2835C2.78351 15.9466 10.3796 8.35052 19.7165 8.35052C29.0534 8.35052 36.6495 15.9466 36.6495 25.2835C36.6495 34.6204 29.0534 42.2165 19.7165 42.2165Z" fill="black"/>
<path d="M21.1083 13.4536H18.3248V26.6753H31.5465V23.8918H21.1083V13.4536Z" fill="black"/>
</svg>
