<svg width="45" height="45" viewBox="0 0 45 45" fill="none" xmlns="http://www.w3.org/2000/svg">
<path d="M41.0449 0H3.95508C1.77429 0 0 1.77429 0 3.95508V41.0449C0 43.2257 1.77429 45 3.95508 45H41.0449C43.2257 45 45 43.2257 45 41.0449V3.95508C45 1.77429 43.2257 0 41.0449 0ZM42.3633 41.0449C42.3633 41.7717 41.7717 42.3633 41.0449 42.3633H3.95508C3.22826 42.3633 2.63672 41.7717 2.63672 41.0449V3.95508C2.63672 3.22826 3.22826 2.63672 3.95508 2.63672H41.0449C41.7717 2.63672 42.3633 3.22826 42.3633 3.95508V41.0449Z" fill="black"/>
<path d="M37.555 10.6708C33.1787 7.46431 27.9726 5.76923 22.5001 5.76923C17.0276 5.76923 11.8215 7.46431 7.44525 10.6708C7.1682 10.8741 6.98498 11.1763 6.93603 11.5114C6.88742 11.8465 6.97682 12.1869 7.18486 12.4576L14.0756 21.4138C14.3322 21.7473 14.7238 21.923 15.1202 21.923C15.3925 21.923 15.6675 21.8399 15.9024 21.6679C17.8203 20.2628 20.1015 19.5198 22.5001 19.5198C24.8983 19.5198 27.1799 20.2628 29.0978 21.6679C29.674 22.0903 30.4915 21.9764 30.9243 21.4138L37.815 12.4576C38.0234 12.1869 38.1128 11.8465 38.0638 11.5114C38.0152 11.1766 37.832 10.8741 37.555 10.6708ZM29.5843 18.9107C27.8234 17.858 25.8613 17.2203 23.8054 17.0304V13.1434C23.8054 12.439 23.2211 11.8681 22.5001 11.8681C21.7791 11.8681 21.1948 12.439 21.1948 13.1434V17.0304C19.1389 17.2203 17.1768 17.858 15.4159 18.9107L10.0794 11.9743C13.7673 9.57951 18.0348 8.31982 22.5001 8.31982C26.9654 8.31982 31.2329 9.57951 34.9208 11.9743L29.5843 18.9107Z" fill="black"/>
</svg>
