<svg width="81" height="81" viewBox="0 0 81 81" fill="none" xmlns="http://www.w3.org/2000/svg">
<g filter="url(#filter0_d_1_53)">
<circle cx="40.5" cy="36.5" r="36.5" fill="white"/>
</g>
<path d="M32.5414 49C32.1192 48.9993 31.7045 48.8943 31.3381 48.6954C30.5129 48.252 30 47.3911 30 46.4565V27.5436C30 26.6064 30.5129 25.7482 31.3381 25.3047C31.7132 25.1002 32.1394 24.995 32.5721 25.0002C33.0047 25.0053 33.428 25.1206 33.7976 25.334L50.8397 35.0096C51.1948 35.2209 51.4876 35.5142 51.6906 35.8621C51.8935 36.21 52 36.6011 52 36.9988C52 37.3964 51.8935 37.7875 51.6906 38.1354C51.4876 38.4833 51.1948 38.7766 50.8397 38.9879L33.7948 48.6661C33.4166 48.883 32.9834 48.9984 32.5414 49Z" fill="black"/>
<defs>
<filter id="filter0_d_1_53" x="0" y="0" width="81" height="81" filterUnits="userSpaceOnUse" color-interpolation-filters="sRGB">
<feFlood flood-opacity="0" result="BackgroundImageFix"/>
<feColorMatrix in="SourceAlpha" type="matrix" values="0 0 0 0 0 0 0 0 0 0 0 0 0 0 0 0 0 0 127 0" result="hardAlpha"/>
<feOffset dy="4"/>
<feGaussianBlur stdDeviation="2"/>
<feColorMatrix type="matrix" values="0 0 0 0 0 0 0 0 0 0 0 0 0 0 0 0 0 0 0.04 0"/>
<feBlend mode="normal" in2="BackgroundImageFix" result="effect1_dropShadow_1_53"/>
<feBlend mode="normal" in="SourceGraphic" in2="effect1_dropShadow_1_53" result="shape"/>
</filter>
</defs>
</svg>
