<svg width="39" height="39" viewBox="0 0 39 39" fill="none" xmlns="http://www.w3.org/2000/svg">
<path d="M29.4023 17.5195C30.2437 17.5195 30.9258 16.8375 30.9258 15.9961C30.9258 15.1547 30.2437 14.4727 29.4023 14.4727C28.561 14.4727 27.8789 15.1547 27.8789 15.9961C27.8789 16.8375 28.561 17.5195 29.4023 17.5195Z" fill="black"/>
<path d="M32.9062 3.04688H30.9258V1.52344C30.9258 0.682043 30.2437 0 29.4023 0C28.5609 0 27.8789 0.682043 27.8789 1.52344V3.04688H20.9473V1.52344C20.9473 0.682043 20.2652 0 19.4238 0C18.5824 0 17.9004 0.682043 17.9004 1.52344V3.04688H11.0449V1.52344C11.0449 0.682043 10.3629 0 9.52148 0C8.68009 0 7.99805 0.682043 7.99805 1.52344V3.04688H6.09375C2.73366 3.04688 0 5.78053 0 9.14062V32.9062C0 36.2663 2.73366 39 6.09375 39H17.748C18.5894 39 19.2715 38.318 19.2715 37.4766C19.2715 36.6352 18.5894 35.9531 17.748 35.9531H6.09375C4.4137 35.9531 3.04688 34.5863 3.04688 32.9062V9.14062C3.04688 7.46058 4.4137 6.09375 6.09375 6.09375H7.99805V7.61719C7.99805 8.45858 8.68009 9.14062 9.52148 9.14062C10.3629 9.14062 11.0449 8.45858 11.0449 7.61719V6.09375H17.9004V7.61719C17.9004 8.45858 18.5824 9.14062 19.4238 9.14062C20.2652 9.14062 20.9473 8.45858 20.9473 7.61719V6.09375H27.8789V7.61719C27.8789 8.45858 28.5609 9.14062 29.4023 9.14062C30.2437 9.14062 30.9258 8.45858 30.9258 7.61719V6.09375H32.9062C34.5863 6.09375 35.9531 7.46058 35.9531 9.14062V17.8242C35.9531 18.6656 36.6352 19.3477 37.4766 19.3477C38.318 19.3477 39 18.6656 39 17.8242V9.14062C39 5.78053 36.2663 3.04688 32.9062 3.04688Z" fill="black"/>
<path d="M29.7832 20.5664C24.701 20.5664 20.5664 24.701 20.5664 29.7832C20.5664 34.8654 24.701 39 29.7832 39C34.8654 39 39 34.8654 39 29.7832C39 24.701 34.8654 20.5664 29.7832 20.5664ZM29.7832 35.9531C26.3811 35.9531 23.6133 33.1853 23.6133 29.7832C23.6133 26.3811 26.3811 23.6133 29.7832 23.6133C33.1853 23.6133 35.9531 26.3811 35.9531 29.7832C35.9531 33.1853 33.1853 35.9531 29.7832 35.9531Z" fill="black"/>
<path d="M31.9922 28.2598H31.3066V26.6602C31.3066 25.8188 30.6246 25.1367 29.7832 25.1367C28.9418 25.1367 28.2598 25.8188 28.2598 26.6602V29.7832C28.2598 30.6246 28.9418 31.3066 29.7832 31.3066H31.9922C32.8336 31.3066 33.5156 30.6246 33.5156 29.7832C33.5156 28.9418 32.8336 28.2598 31.9922 28.2598Z" fill="black"/>
<path d="M22.7754 17.5195C23.6168 17.5195 24.2988 16.8375 24.2988 15.9961C24.2988 15.1547 23.6168 14.4727 22.7754 14.4727C21.934 14.4727 21.252 15.1547 21.252 15.9961C21.252 16.8375 21.934 17.5195 22.7754 17.5195Z" fill="black"/>
<path d="M16.1484 24.1465C16.9898 24.1465 17.6719 23.4644 17.6719 22.623C17.6719 21.7817 16.9898 21.0996 16.1484 21.0996C15.3071 21.0996 14.625 21.7817 14.625 22.623C14.625 23.4644 15.3071 24.1465 16.1484 24.1465Z" fill="black"/>
<path d="M9.52148 17.5195C10.3629 17.5195 11.0449 16.8375 11.0449 15.9961C11.0449 15.1547 10.3629 14.4727 9.52148 14.4727C8.68011 14.4727 7.99805 15.1547 7.99805 15.9961C7.99805 16.8375 8.68011 17.5195 9.52148 17.5195Z" fill="black"/>
<path d="M9.52148 24.1465C10.3629 24.1465 11.0449 23.4644 11.0449 22.623C11.0449 21.7817 10.3629 21.0996 9.52148 21.0996C8.68011 21.0996 7.99805 21.7817 7.99805 22.623C7.99805 23.4644 8.68011 24.1465 9.52148 24.1465Z" fill="black"/>
<path d="M9.52148 30.7734C10.3629 30.7734 11.0449 30.0914 11.0449 29.25C11.0449 28.4086 10.3629 27.7266 9.52148 27.7266C8.68011 27.7266 7.99805 28.4086 7.99805 29.25C7.99805 30.0914 8.68011 30.7734 9.52148 30.7734Z" fill="black"/>
<path d="M16.1484 30.7734C16.9898 30.7734 17.6719 30.0914 17.6719 29.25C17.6719 28.4086 16.9898 27.7266 16.1484 27.7266C15.3071 27.7266 14.625 28.4086 14.625 29.25C14.625 30.0914 15.3071 30.7734 16.1484 30.7734Z" fill="black"/>
<path d="M16.1484 17.5195C16.9898 17.5195 17.6719 16.8375 17.6719 15.9961C17.6719 15.1547 16.9898 14.4727 16.1484 14.4727C15.3071 14.4727 14.625 15.1547 14.625 15.9961C14.625 16.8375 15.3071 17.5195 16.1484 17.5195Z" fill="black"/>
</svg>
