<svg width="497" height="72" viewBox="0 0 497 72" fill="none" xmlns="http://www.w3.org/2000/svg">
<path d="M71.4601 20.9935C71.4601 22.9462 70.64 25.6019 68.9997 28.9605C69.3122 29.8978 69.4684 31.1866 69.4684 32.8268C69.4684 40.4033 65.2506 47.9406 56.815 55.439C50.4102 61.0627 44.3178 65.0071 38.5378 67.2723C32.7578 69.6155 26.0797 70.7871 18.5032 70.7871C13.3481 70.7871 9.05222 69.0687 5.61548 65.632C2.25686 62.1953 0.577548 57.8603 0.577548 52.6271C0.577548 45.6755 3.31131 38.8021 8.77884 32.0067C14.2464 25.1332 21.0808 19.5876 29.2821 15.3698C37.5615 11.152 45.6065 9.0431 53.4173 9.0431C58.8848 9.0431 63.2588 10.1366 66.5394 12.3236C69.8199 14.4325 71.4601 17.3225 71.4601 20.9935ZM68.6483 21.9308C68.6483 18.5722 67.2423 15.9166 64.4305 13.9639C61.6967 11.9331 58.0256 10.9177 53.4173 10.9177C46.3876 10.9177 39.2798 12.8313 32.0939 16.6586C24.908 20.4077 18.9328 25.4847 14.1683 31.8895C9.4037 38.2944 7.02142 44.8554 7.02142 51.5726C7.02142 56.7277 8.50546 60.7112 11.4735 63.5231C14.5197 66.335 18.6594 67.7409 23.8926 67.7409C29.204 67.7409 34.8277 66.374 40.7639 63.6403C46.7 60.9846 51.9723 57.1183 56.5806 52.0413C61.189 46.8862 63.8056 41.3406 64.4305 35.4044C60.447 39.8565 55.1357 43.84 48.4965 47.3548C48.1841 47.5111 47.9498 47.5892 47.7935 47.5892C47.7154 47.5892 47.6764 47.5501 47.6764 47.472C47.6764 47.5501 48.7699 46.6909 50.9569 44.8945C56.8931 39.8956 61.3452 35.5606 64.3133 31.8895C63.7665 28.8434 62.2825 26.1877 59.8612 23.9226C57.5179 21.5794 54.5889 19.9 51.0741 18.8846C49.7462 18.5722 47.3249 18.3379 43.8101 18.1817C40.3733 17.9474 38.4988 17.7521 38.1863 17.5959L38.5378 17.3615C41.2716 16.5024 44.4349 16.0728 48.0279 16.0728C51.6989 16.0728 55.4871 17.0101 59.3925 18.8846C63.2979 20.6811 66.1098 23.1025 67.8281 26.1486C68.3749 24.7427 68.6483 23.3368 68.6483 21.9308ZM78.2344 31.5381L77.18 29.4292C77.18 29.1948 77.4534 29.0777 78.0001 29.0777C78.625 29.0777 79.9137 29.4682 81.8664 30.2493C83.8191 31.0304 84.7955 31.6943 84.7955 32.241C84.0144 33.8032 81.8664 38.1382 78.3516 45.2459C74.9149 52.3537 73.1965 57.1573 73.1965 59.6568C73.1965 62.0781 73.7042 63.2888 74.7196 63.2888C75.9693 63.2888 77.7658 61.8828 80.109 59.071C82.4522 56.2591 84.7564 52.9786 87.0215 49.2294L96.8631 33.2955C97.9566 31.4209 99.2063 30.4836 100.612 30.4836C103.424 30.4836 104.83 31.0304 104.83 32.1239C104.83 31.8114 104.635 32.0067 104.244 32.7097C102.057 36.6932 100.065 41.4968 98.269 47.1205C96.5506 52.7443 95.6915 56.4153 95.6915 58.1337C95.6915 62.8982 96.5506 65.2805 98.269 65.2805C98.8158 65.2805 99.9483 64.5385 101.667 63.0545C101.823 63.0545 101.901 63.3669 101.901 63.9917C101.901 66.0225 100.729 67.0379 98.3862 67.0379C96.1211 67.0379 94.3246 65.9835 92.9968 63.8746C91.747 61.8438 91.1222 59.3053 91.1222 56.2591C91.1222 53.1348 91.747 48.9951 92.9968 43.84C86.9044 53.7597 82.8037 60.0083 80.6948 62.5858C78.664 65.1634 76.6723 66.4521 74.7196 66.4521C72.7669 66.4521 71.1266 65.7101 69.7988 64.2261C68.5491 62.8201 67.9242 61.258 67.9242 59.5396C67.9242 56.2591 69.6426 50.8697 73.0793 43.3714C76.5161 35.7949 78.2344 31.8505 78.2344 31.5381ZM137.623 30.1321C137.623 29.8197 137.194 30.2493 136.335 31.4209C133.366 35.5606 131.765 38.6068 131.531 40.5595C131.531 42.6684 132.273 43.9572 133.757 44.4258C134.304 44.582 134.577 44.6992 134.577 44.7773C134.577 45.4022 133.796 45.7146 132.234 45.7146C130.75 45.7146 129.461 45.1288 128.368 43.9572C127.274 42.7074 126.727 41.3406 126.727 39.8565C126.727 38.2944 126.923 36.9665 127.313 35.873C123.486 38.9192 120.283 42.0435 117.706 45.2459C115.206 48.4483 113.488 51.2212 112.551 53.5644C111.614 55.9076 110.911 58.0556 110.442 60.0083C109.973 61.8828 109.583 63.2888 109.27 64.2261C108.958 65.2415 108.45 65.7492 107.747 65.7492C107.044 65.7492 106.263 65.5539 105.404 65.1634C104.545 64.7728 104.115 64.3042 104.115 63.7574C104.115 62.4296 105.404 57.7431 107.982 49.6981C110.559 41.5749 111.848 35.4825 111.848 31.4209C111.848 30.0931 111.301 29.3901 110.208 29.312C109.114 29.1558 108.567 28.9215 108.567 28.609C108.567 27.9061 109.153 27.5546 110.325 27.5546C115.558 27.5546 118.175 29.7025 118.175 33.9985C118.175 35.2482 116.886 39.8565 114.308 47.8235C118.526 40.95 123.212 36.2245 128.368 33.647C129.617 30.8351 131.453 29.4292 133.874 29.4292C136.374 29.4292 137.623 29.6635 137.623 30.1321ZM178.435 22.6338L180.661 22.5166C181.208 22.5166 181.481 22.6729 181.481 22.9853C181.481 23.7664 180.544 24.1569 178.669 24.1569C173.905 24.1569 168.828 22.5948 163.438 19.4705C158.049 16.3462 155.354 13.0656 155.354 9.6289C155.354 5.09867 157.619 2.83355 162.149 2.83355C163.243 2.83355 164.454 2.95071 165.781 3.18503C192.26 9.98039 211.162 13.3781 222.487 13.3781C229.439 13.3781 232.915 11.855 232.915 8.80877C232.915 6.69987 230.728 4.94245 226.354 3.53652L220.027 1.07613C220.027 0.68559 220.535 0.490321 221.55 0.490321C224.596 0.490321 227.838 1.8572 231.275 4.59097C234.711 7.24662 236.43 9.90228 236.43 12.5579C236.43 15.6041 233.462 17.1272 227.525 17.1272H227.057C219.012 16.8148 212.333 16.1118 207.022 15.0183C192.025 11.9721 183.512 10.2538 181.481 9.86323C179.45 9.39458 177.81 9.0431 176.56 8.80877C175.389 8.57445 173.826 8.30108 171.874 7.98864C168.437 7.44189 165.196 7.16852 162.149 7.16852C159.103 7.16852 157.58 7.98864 157.58 9.6289C157.58 12.5189 160.197 15.4089 165.43 18.2988C170.741 21.1888 175.076 22.6338 178.435 22.6338ZM211.943 18.1817C211.943 18.416 211.748 18.9237 211.357 19.7048L203.976 27.0859C190.62 42.0045 183.941 55.2046 183.941 66.6865C183.941 68.8735 185.074 69.967 187.339 69.967C188.901 69.967 190.776 69.4202 192.963 68.3267L195.892 66.6865C196.204 66.6865 196.36 66.7646 196.36 66.9208C196.36 67.8581 195.111 68.7954 192.611 69.7326C190.112 70.748 188.433 71.2557 187.573 71.2557C185.464 71.2557 183.824 70.5137 182.653 69.0297C181.481 67.6237 180.895 65.3977 180.895 62.3515C180.895 59.3834 182.457 54.1502 185.582 46.6519C188.784 39.1535 192.689 32.241 197.298 25.9143C201.984 19.5876 205.968 16.4243 209.248 16.4243C211.045 16.4243 211.943 17.0101 211.943 18.1817ZM241.59 47.3548C242.059 47.3548 242.293 47.5501 242.293 47.9406C242.293 48.2531 242.215 48.5655 242.059 48.8779C233.858 60.8284 227.062 66.8036 221.673 66.8036C215.034 66.8036 211.714 63.7184 211.714 57.5479C211.714 52.7833 214.057 47.0034 218.744 40.208C223.508 33.4126 228.117 30.015 232.569 30.015C234.443 30.015 236.084 30.6398 237.49 31.8895C238.974 33.0612 239.716 34.5062 239.716 36.2245C239.716 39.1926 237.88 42.1216 234.209 45.0116C230.538 47.9016 226.984 49.3466 223.547 49.3466C222.844 49.3466 222.493 49.1904 222.493 48.8779L222.844 48.2921C231.827 45.4803 236.318 40.8719 236.318 34.4671C236.318 33.5298 236.006 33.0612 235.381 33.0612C234.443 33.0612 232.881 33.9594 230.694 35.7559C226.867 38.8802 223.547 42.7855 220.736 47.472C217.924 52.1585 216.518 56.1029 216.518 59.3053C216.518 62.5077 217.728 64.1089 220.15 64.1089C222.883 64.1089 225.969 62.6639 229.405 59.7739C231.592 57.7431 234.131 55.1656 237.021 52.0413C239.989 48.917 241.512 47.3548 241.59 47.3548ZM260.168 28.2575C260.714 28.2575 261.808 29.0777 263.448 30.7179C265.088 32.3582 265.908 33.4126 265.908 33.8813C265.908 34.2718 265.713 34.4671 265.323 34.4671C263.604 34.0766 262.511 33.8813 262.042 33.8813C258.527 33.8813 254.895 35.1701 251.146 37.7476C247.475 40.3252 245.64 42.9418 245.64 45.5974C245.64 46.1442 247.475 48.5265 251.146 52.7443C254.817 56.884 256.653 59.7349 256.653 61.297C256.653 62.7811 255.559 64.3042 253.372 65.8663C251.185 67.4285 248.959 68.2095 246.694 68.2095C244.507 68.2095 242.632 67.8581 241.07 67.1551C239.508 66.5302 238.727 65.8663 238.727 65.1634C247.709 63.2888 252.201 61.0237 252.201 58.368C252.201 57.8212 251.146 56.6106 249.037 54.736C244.976 51.1431 242.945 47.1205 242.945 42.6684C242.945 39.5441 244.937 36.3807 248.92 33.1783C252.982 29.8978 256.731 28.2575 260.168 28.2575ZM276.819 18.0645L274.476 18.6503C274.242 18.6503 274.124 18.5332 274.124 18.2988C274.124 17.674 274.593 17.2053 275.53 16.8929C276.468 16.5024 277.171 16.3071 277.639 16.3071C281.076 16.3071 282.794 18.2598 282.794 22.1652C282.794 24.5084 282.091 27.4765 280.685 31.0694C280.998 31.3818 282.404 31.5381 284.903 31.5381C287.403 31.5381 289.355 31.2647 290.761 30.7179C292.167 30.0931 292.987 29.7806 293.222 29.7806C293.534 29.7806 293.69 29.8978 293.69 30.1321C293.69 30.3665 293.534 30.6398 293.222 30.9523C289.551 34.0766 285.06 35.9902 279.748 36.6932C279.28 36.6932 278.733 36.8103 278.108 37.0446C271 51.2602 267.446 60.2426 267.446 63.9917C267.446 65.2415 267.915 65.8663 268.852 65.8663L272.133 65.1634L272.25 65.2805C272.25 66.9208 270.961 67.7409 268.384 67.7409C264.947 67.7409 263.228 65.9054 263.228 62.2343C263.228 59.11 264.322 54.7751 266.509 49.2294C267.759 46.4175 269.594 42.1216 272.016 36.3417C269.36 35.2482 268.032 33.7251 268.032 31.7724C268.032 31.1475 268.188 30.7179 268.501 30.4836C269.75 31.0304 271.547 31.4209 273.89 31.6552C276.468 25.9534 277.756 22.2823 277.756 20.6421C277.756 18.9237 277.444 18.0645 276.819 18.0645ZM312.536 37.6305L309.607 37.1618C309.763 38.724 309.841 39.9737 309.841 40.911C309.841 47.3939 308.201 53.1348 304.92 58.1337C301.64 63.0545 297.539 65.5148 292.619 65.5148C286.292 65.5148 283.128 62.1953 283.128 55.5561C283.128 52.9005 283.714 50.0886 284.886 47.1205C286.136 44.0743 287.659 41.6139 289.455 39.7394C288.596 38.3334 288.166 36.4979 288.166 34.2328C288.166 31.9677 289.104 29.9369 290.978 28.1404C292.853 26.2658 295.157 25.3285 297.891 25.3285C303.046 25.3285 306.483 27.9842 308.201 33.2955C311.872 33.9985 313.708 34.8576 313.708 35.873C313.708 37.0446 313.317 37.6305 312.536 37.6305ZM296.485 28.609C294.845 28.609 293.478 29.3511 292.384 30.8351C291.291 32.3191 290.744 33.8422 290.744 35.4044C290.744 36.8884 290.861 37.9819 291.095 38.6849C296.407 34.7014 300.078 32.7097 302.109 32.7097H302.46C301.445 29.9759 299.453 28.609 296.485 28.609ZM295.196 42.6684C295.977 43.2151 296.602 43.4885 297.071 43.4885C297.539 43.4104 297.813 43.3714 297.891 43.3714C298.281 43.3714 298.477 43.5666 298.477 43.9572C298.477 44.582 297.93 44.8945 296.836 44.8945C295.821 44.8945 294.884 44.6211 294.024 44.0743C289.885 48.917 287.815 53.4863 287.815 57.7822C287.815 62 289.377 64.1089 292.501 64.1089C295.704 64.1089 298.711 61.6095 301.523 56.6106C304.335 51.5336 305.741 46.6909 305.741 42.0826C305.741 40.0518 305.389 38.4115 304.686 37.1618C301.718 37.6305 298.555 39.466 295.196 42.6684ZM362.611 38.8021C359.486 47.3939 357.924 53.5644 357.924 57.3135C357.924 60.9846 358.588 62.8201 359.916 62.8201C360.15 62.1953 360.423 61.3361 360.736 60.2426C360.97 60.7893 361.087 61.6095 361.087 62.703C361.087 64.7338 360.463 65.7492 359.213 65.7492C355.151 65.7492 353.12 62.2343 353.12 55.2046C353.12 51.846 353.667 47.472 354.761 42.0826C352.964 43.8791 351.168 46.1051 349.371 48.7608L343.279 57.3135C339.92 62.0781 337.85 64.4604 337.069 64.4604C334.414 64.4604 333.086 63.9917 333.086 63.0545C333.086 62.8201 333.515 60.9846 334.375 57.5479C337.108 47.3939 338.475 40.4814 338.475 36.8103C338.475 35.1701 337.968 34.3499 336.952 34.3499C334.062 34.3499 330.157 38.6068 325.236 47.1205C323.518 50.2448 321.604 54.1502 319.495 58.8366C317.464 63.445 316.371 65.7492 316.215 65.7492C315.434 65.7492 314.613 65.5539 313.754 65.1634C312.895 64.7728 312.465 64.3042 312.465 63.7574C312.465 62.4296 313.754 57.7431 316.332 49.6981C318.909 41.5749 320.198 35.4825 320.198 31.4209C320.198 30.0931 319.651 29.3901 318.558 29.312C317.464 29.1558 316.918 28.9215 316.918 28.609C316.918 27.9061 317.503 27.5546 318.675 27.5546C323.908 27.5546 326.525 29.7025 326.525 33.9985C326.525 36.1855 325.627 39.8175 323.83 44.8945L326.525 40.3252C328.712 36.7322 330.704 34.1156 332.5 32.4754C334.375 30.8351 336.327 30.015 338.358 30.015C338.436 30.015 338.514 30.015 338.592 30.015C342.185 30.015 343.982 32.4363 343.982 37.279C343.982 41.1843 342.537 47.4329 339.647 56.0248L355.698 38.6849C356.713 38.06 358.119 37.7476 359.916 37.7476C361.712 37.7476 362.611 38.0991 362.611 38.8021ZM386.068 13.3781C386.225 13.3781 386.303 13.5733 386.303 13.9639L385.717 17.3615C384.545 22.2042 382.749 24.6255 380.327 24.6255C378.531 24.6255 377.125 24.1569 376.11 23.2196C379.078 21.1888 382.397 17.9083 386.068 13.3781ZM379.976 32.5925C377.555 36.7322 375.25 42.0045 373.063 48.4093C370.876 54.736 369.783 59.11 369.783 61.5314C369.783 63.9527 370.291 65.1634 371.306 65.1634C372.009 65.1634 372.907 64.7338 374.001 63.8746C375.094 63.0154 375.758 62.4686 375.993 62.2343C376.227 62 376.5 61.7657 376.813 61.5314C377.125 61.5314 377.281 61.6876 377.281 62C377.281 62.9373 376.149 64.0308 373.884 65.2805C371.697 66.6083 370.095 67.2723 369.08 67.2723C366.112 67.2723 364.628 65.1243 364.628 60.8284C364.628 54.4236 366.971 45.8708 371.658 35.1701C371.658 34.8576 371.853 34.2718 372.243 33.4126C372.712 32.5535 373.063 32.0067 373.298 31.7724C373.845 31.2256 374.587 30.9523 375.524 30.9523C378.258 30.9523 379.742 31.499 379.976 32.5925ZM415.32 32.1239C415.32 31.8114 415.125 32.0067 414.734 32.7097C412.547 36.6932 410.595 41.4968 408.876 47.1205C407.158 52.7443 406.299 56.4153 406.299 58.1337C406.299 62.8982 407.158 65.2805 408.876 65.2805C409.423 65.2805 410.126 64.89 410.985 64.1089C411.923 63.4059 412.313 63.0545 412.157 63.0545C412.391 63.0545 412.508 63.3669 412.508 63.9917C412.508 66.0225 411.337 67.0379 408.994 67.0379C406.65 67.0379 404.854 65.9835 403.604 63.8746C402.354 61.8438 401.73 58.9148 401.73 55.0875C401.73 51.2602 402.745 46.2223 404.776 39.9737C406.807 33.647 408.759 30.4836 410.634 30.4836H411.22C413.953 30.4836 415.32 31.0304 415.32 32.1239ZM406.182 33.2955C406.26 33.3736 406.299 33.5298 406.299 33.7641C406.299 33.9203 405.986 34.389 405.362 35.1701C396.926 45.4022 391.068 54.1502 387.787 61.4142L386.733 64.4604C386.264 65.3196 385.678 65.7492 384.975 65.7492C384.273 65.7492 383.491 65.5539 382.632 65.1634C381.773 64.7728 381.343 64.3042 381.343 63.7574C381.343 62.4296 382.632 57.7431 385.21 49.6981C387.787 41.5749 389.076 35.4825 389.076 31.4209C389.076 30.3274 388.803 29.6635 388.256 29.4292C387.709 29.1948 387.163 29.1167 386.616 29.1948C386.069 29.1948 385.796 28.9996 385.796 28.609C385.796 27.9061 386.381 27.5546 387.553 27.5546C392.786 27.5546 395.403 29.7025 395.403 33.9985C395.403 35.6387 393.528 42.0045 389.779 53.0957C393.216 47.7063 396.535 43.0589 399.738 39.1535C402.94 35.2482 405.088 33.2955 406.182 33.2955ZM444.386 65.3977L445.558 65.1634L445.792 65.2805C445.792 65.9835 444.816 66.335 442.863 66.335C440.989 66.335 439.426 65.4758 438.177 63.7574C437.005 62.0391 436.419 59.7349 436.419 56.8449C436.419 53.8768 436.966 50.5182 438.06 46.769C438.06 47.0034 437.005 48.6046 434.896 51.5726C428.491 61.4923 423.454 66.4521 419.782 66.4521C418.22 66.4521 416.775 65.7101 415.447 64.2261C414.198 62.8201 413.573 60.9846 413.573 58.7195C413.573 56.3763 414.94 52.8614 417.674 48.175C420.485 43.4104 423.844 39.1926 427.749 35.5215C431.655 31.8505 435.013 30.015 437.825 30.015H438.997C441.887 30.015 444.347 30.6008 446.378 31.7724C448.409 32.8659 449.424 34.3499 449.424 36.2245C449.424 37.0837 449.073 37.5133 448.37 37.5133C448.135 37.5133 448.018 37.3961 448.018 37.1618C446.69 34.2718 444.777 32.8268 442.277 32.8268C437.903 32.8268 432.826 36.4979 427.046 43.84C421.345 51.104 418.494 56.6496 418.494 60.4769C418.494 61.9609 418.884 62.703 419.665 62.703C423.18 62.703 430.561 54.7751 441.809 38.9192C441.965 38.763 442.199 38.6849 442.512 38.6849C442.902 38.6849 443.722 39.0754 444.972 39.8565C446.222 40.5595 446.847 41.1843 446.847 41.7311C446.847 41.7311 446.3 42.7465 445.206 44.7773C442.629 50.2448 441.34 55.0484 441.34 59.1881C441.34 63.3278 442.356 65.3977 444.386 65.3977ZM458.632 64.6947L460.507 64.1089C460.898 64.1089 461.093 64.3042 461.093 64.6947C461.093 65.9444 459.726 66.5693 456.992 66.5693C453.243 66.5693 451.368 63.445 451.368 57.1964C451.368 53.0567 452.618 46.4957 455.118 37.5133C457.617 28.4528 460.78 19.9781 464.608 12.0893C468.435 4.20043 471.872 0.256001 474.918 0.256001C476.636 0.256001 478.355 0.841807 480.073 2.01342C481.791 3.10692 482.65 4.31759 482.65 5.64542C482.65 11.2692 474.371 23.7664 457.812 43.137C456.484 48.917 455.821 53.9549 455.821 58.2508C455.821 62.5468 456.758 64.6947 458.632 64.6947ZM479.839 5.29393C479.839 4.35664 479.565 3.888 479.018 3.888C476.675 3.888 473.278 8.06675 468.825 16.4243C464.373 24.7037 460.976 32.5925 458.632 40.0908C472.77 21.5794 479.839 9.98039 479.839 5.29393ZM490.486 28.2575C491.032 28.2575 492.126 29.0777 493.766 30.7179C495.406 32.3582 496.227 33.4126 496.227 33.8813C496.227 34.2718 496.031 34.4671 495.641 34.4671C493.922 34.0766 492.829 33.8813 492.36 33.8813C488.845 33.8813 485.213 35.1701 481.464 37.7476C477.793 40.3252 475.958 42.9418 475.958 45.5974C475.958 46.1442 477.793 48.5265 481.464 52.7443C485.135 56.884 486.971 59.7349 486.971 61.297C486.971 62.7811 485.877 64.3042 483.69 65.8663C481.503 67.4285 479.277 68.2095 477.012 68.2095C474.825 68.2095 472.95 67.8581 471.388 67.1551C469.826 66.5302 469.045 65.8663 469.045 65.1634C478.027 63.2888 482.519 61.0237 482.519 58.368C482.519 57.8212 481.464 56.6106 479.355 54.736C475.294 51.1431 473.263 47.1205 473.263 42.6684C473.263 39.5441 475.255 36.3807 479.238 33.1783C483.3 29.8978 487.049 28.2575 490.486 28.2575Z" fill="#ED6FAB" fill-opacity="0.16"/>
</svg>
