<svg width="49" height="43" viewBox="0 0 49 43" fill="none" xmlns="http://www.w3.org/2000/svg">
<path d="M1.40936 36.6403H8.45557V40.868C8.45557 41.6463 9.08654 42.2773 9.86482 42.2773H46.693C47.4713 42.2773 48.1023 41.6463 48.1023 40.868V4.22773C48.1023 3.44945 47.4713 2.81848 46.693 2.81848H39.6468V1.40924C39.6468 0.630965 39.0158 0 38.2376 0C37.4593 0 36.8283 0.630965 36.8283 1.40924V2.81848H29.6882V1.40924C29.6882 0.630965 29.0572 0 28.2789 0C27.5006 0 26.8697 0.630965 26.8697 1.40924V2.81848H19.8235V1.40924C19.8235 0.630965 19.1925 0 18.4142 0C17.6359 0 17.005 0.630965 17.005 1.40924V2.81848H9.86482C9.08654 2.81848 8.45557 3.44945 8.45557 4.22773V12.6832C8.45557 23.0693 4.13906 31.0593 0.507163 34.1485C0.05132 34.5283 -0.117695 35.1529 0.0842024 35.7109C0.286288 36.2687 0.815975 36.6403 1.40936 36.6403ZM45.2838 39.4588H11.2741V36.6403H38.2376C38.5672 36.6403 38.8865 36.5247 39.1398 36.3136C40.8339 34.9026 43.458 31.5432 45.2838 27.2405V39.4588ZM11.2741 5.63697H17.005V7.04621C17.005 7.82449 17.6359 8.45545 18.4142 8.45545C19.1925 8.45545 19.8235 7.82449 19.8235 7.04621V5.63697H26.8697V7.04621C26.8697 7.82449 27.5006 8.45545 28.2789 8.45545C29.0572 8.45545 29.6882 7.82449 29.6882 7.04621V5.63697H36.8283V7.04621C36.8283 7.82449 37.4593 8.45545 38.2376 8.45545C39.0158 8.45545 39.6468 7.82449 39.6468 7.04621V5.63697H45.2838V11.2739H11.2741V5.63697ZM11.2499 14.0915H45.2588C44.9412 23.0312 41.5101 30.0651 37.685 33.8218H4.61482C8.949 28.2994 11.0174 21.1088 11.2499 14.0915Z" fill="black"/>
</svg>
