<svg width="112" height="35" viewBox="0 0 112 35" fill="none" xmlns="http://www.w3.org/2000/svg">
<path d="M21.4736 7.15689C21.4736 7.7591 21.3068 8.42044 20.9734 9.14106C20.64 9.86151 20.199 10.5553 19.6506 11.222C19.1022 11.8888 18.4837 12.4964 17.7953 13.0449C17.107 13.5934 16.4187 13.9967 15.7304 14.2549C16.3111 14.4269 16.8542 14.6366 17.3598 14.8839C17.8653 15.1314 18.3654 15.4593 18.86 15.8678C18.9891 15.9754 19.1343 16.1742 19.2957 16.4647C19.4571 16.7551 19.6075 17.0671 19.7474 17.4003C19.8871 17.7337 20 18.0617 20.0861 18.3842C20.1722 18.7068 20.2152 18.965 20.2152 19.1585C20.2152 19.7609 19.9624 20.2931 19.4569 20.7556C18.9515 21.2179 18.3761 21.5945 17.7309 21.8848C17.0855 22.1752 16.4565 22.3956 15.8435 22.5461C15.2304 22.6967 14.8058 22.7719 14.5691 22.7719H12.4719C12.2567 22.7719 11.9288 22.6805 11.4879 22.4976C11.0469 22.3148 10.5953 22.0998 10.1328 21.8523C9.67047 21.605 9.25629 21.363 8.89073 21.1264C8.52501 20.8897 8.29918 20.7177 8.21308 20.6101C8.27754 20.481 8.33133 20.1961 8.37446 19.7551C8.41759 19.3142 8.44974 18.7656 8.47122 18.1096C8.4927 17.4535 8.50886 16.7222 8.51968 15.9156C8.5305 15.1091 8.53584 14.2864 8.53584 13.4475C8.53584 12.6086 8.5305 11.8504 8.51968 11.1729C8.50902 10.4954 8.50353 9.86071 8.50353 9.26932C8.50353 8.67776 8.4982 8.10786 8.48737 7.55944C8.47655 7.01102 8.47122 6.44628 8.47122 5.86555C8.47122 5.34928 8.51968 4.99438 8.61644 4.80086C8.7132 4.60734 8.75084 4.51058 8.72936 4.51058C8.38528 4.51058 7.85818 4.63964 7.14839 4.89762C6.43859 5.15576 5.73412 5.47835 5.03515 5.86555C4.33602 6.25276 3.72298 6.6776 3.19604 7.13993C2.66911 7.60241 2.40564 8.03791 2.40564 8.4466C2.40564 8.94123 2.45927 9.34992 2.56701 9.67268C2.67444 9.99543 2.72839 10.1781 2.72839 10.2211C2.72839 10.5868 2.65311 10.8933 2.50256 11.1406C2.35201 11.388 2.11535 11.5116 1.79276 11.5116C1.53463 11.5116 1.33028 11.4202 1.17973 11.2373C1.02918 11.0545 0.916259 10.8503 0.840982 10.6243C0.765705 10.3985 0.717244 10.178 0.69576 9.96296C0.674275 9.74779 0.663452 9.60806 0.663452 9.54361C0.663452 8.70474 0.910929 7.94115 1.40556 7.25284C1.90019 6.56453 2.54553 5.95682 3.34143 5.42989C4.13732 4.90295 5.04597 4.45113 6.0677 4.07475C7.08943 3.69836 8.13797 3.38643 9.21332 3.13912C10.2887 2.89164 11.3374 2.70895 12.3589 2.5907C13.3807 2.47245 14.2893 2.41317 15.0852 2.41317H15.3434C16.3113 2.43465 17.2199 2.62285 18.0696 2.97774C18.9192 3.33264 19.6236 3.86507 20.1829 4.57487C20.2258 4.61784 20.2528 4.65014 20.2636 4.67163C20.2743 4.69311 20.2906 4.7146 20.3121 4.73608C20.5917 5.05867 20.8067 5.31148 20.9573 5.49434C21.1078 5.6772 21.2207 5.84924 21.296 6.01062C21.3713 6.17199 21.4198 6.33854 21.4412 6.51074C21.4627 6.68277 21.4736 6.89794 21.4736 7.15608V7.15689ZM111.489 22.0949C111.489 22.267 111.446 22.3854 111.36 22.4498C111.274 22.5143 111.177 22.5574 111.069 22.5789C110.962 22.6004 110.849 22.6165 110.73 22.6274C110.612 22.638 110.532 22.6758 110.489 22.7403V27.8702C110.489 28.2789 110.483 28.7252 110.472 29.2091C110.462 29.693 110.413 30.1717 110.327 30.6448C110.241 31.1179 110.107 31.5589 109.924 31.9676C109.741 32.3763 109.478 32.7096 109.133 32.9679C109.112 32.9894 109.042 33.0378 108.924 33.1129C108.806 33.1882 108.676 33.2743 108.537 33.3711C108.397 33.4678 108.262 33.5594 108.133 33.6454C108.004 33.7313 107.918 33.7851 107.875 33.8067C107.574 34.0003 107.332 34.2261 107.149 34.4842C106.966 34.7424 106.735 34.8714 106.455 34.8714C106.348 34.8714 106.267 34.8661 106.214 34.8553C106.16 34.8445 106.106 34.8283 106.052 34.8068C105.998 34.7853 105.923 34.7584 105.826 34.7261C105.73 34.6939 105.595 34.6561 105.423 34.6131C104.455 34.4196 103.783 34.1345 103.406 33.7581C103.03 33.3817 102.842 32.7742 102.842 31.9352C102.842 31.0748 102.971 30.1822 103.229 29.2572C103.487 28.3322 103.842 27.4397 104.294 26.5794C104.745 25.719 105.283 24.9178 105.907 24.1757C106.531 23.4338 107.208 22.8046 107.939 22.2883V18.1586C107.832 18.5671 107.703 19.0404 107.552 19.5782C107.402 20.1159 107.214 20.6212 106.988 21.0945C106.762 21.5677 106.498 21.9657 106.197 22.2883C105.896 22.6109 105.541 22.7723 105.133 22.7723C104.767 22.7723 104.369 22.6432 103.939 22.3851C103.509 22.1269 103.122 21.8688 102.777 21.6108C102.519 21.3956 102.315 21.0569 102.164 20.5946C102.128 20.482 102.093 20.3676 102.061 20.2519C102.018 20.3755 101.972 20.5007 101.922 20.6269C101.675 21.2614 101.342 21.8261 100.922 22.3208C100.503 22.8154 99.9703 23.0627 99.3249 23.0627C98.6366 23.0627 98.0882 22.8207 97.6795 22.3368C97.2708 21.8528 96.9589 21.2721 96.7439 20.5946C96.5287 19.9169 96.389 19.2071 96.3243 18.4652C96.2599 17.7231 96.2276 17.1047 96.2276 16.6099C96.2276 16.0507 96.2599 15.4861 96.3243 14.9162C96.389 14.3461 96.4319 13.7816 96.4534 13.2223C96.4534 13.0503 96.3673 12.9427 96.1953 12.8997C96.0232 12.8567 95.8619 12.8353 95.7113 12.8353C95.4532 12.8353 95.292 12.8674 95.2273 12.932C95.1627 12.9965 95.1198 13.0718 95.0983 13.1579L94.9692 14.1902C94.8831 14.8786 94.7917 15.5399 94.6949 16.1744C94.5982 16.8089 94.4906 17.3682 94.3723 17.8521C94.2686 18.2763 94.1484 18.6262 94.0114 18.9018C93.9588 19.1737 93.8586 19.4851 93.7108 19.8365C93.5388 20.245 93.3183 20.6377 93.0495 21.0141C92.7805 21.3905 92.4688 21.7077 92.1139 21.9659C91.759 22.224 91.3664 22.3529 90.9362 22.3529C90.2909 22.3529 89.7263 22.1056 89.2425 21.611C88.7586 21.1163 88.4628 20.4172 88.3552 19.5137C88.2261 19.858 88.0756 20.2558 87.9035 20.7075C87.7315 21.1591 87.5165 21.5787 87.2584 21.9657C87.0002 22.3527 86.7044 22.6808 86.371 22.9496C86.0376 23.2186 85.6451 23.353 85.1934 23.353C85.0644 23.353 84.9676 23.3422 84.903 23.3207C84.8385 23.2992 84.7686 23.2722 84.6933 23.2401C84.618 23.2078 84.5319 23.1809 84.4352 23.1593C84.3384 23.1378 84.204 23.1272 84.0318 23.1272C83.5155 23.1272 83.08 22.9605 82.7251 22.627C82.3702 22.2936 82.0853 21.8688 81.8701 21.3527C81.6842 20.9065 81.5425 20.4241 81.4449 19.9058C81.3713 20.0413 81.2924 20.1739 81.2086 20.3041C80.8967 20.7881 80.5041 21.186 80.031 21.4979C79.5579 21.8098 78.977 21.9659 78.2887 21.9659C77.7509 21.9659 77.2025 21.783 76.6432 21.4174C76.084 21.0302 75.7023 20.5248 75.4978 19.9011C75.2934 19.2772 75.1913 18.675 75.1913 18.0943C75.1913 17.9222 75.2021 17.6641 75.2236 17.32C75.2451 16.976 75.2559 16.5564 75.2559 16.0618V12.5128C75.2559 12.3408 75.2506 12.1579 75.2398 11.9644C75.2291 11.7709 75.2021 11.588 75.1592 11.416C75.1377 11.3299 75.1001 11.2331 75.0463 11.1255C74.9925 11.018 74.9655 10.9427 74.9655 10.8997C74.9655 10.8138 75.0193 10.7438 75.1269 10.69C75.2345 10.6364 75.3527 10.5986 75.4818 10.5771C75.6108 10.5556 75.7344 10.5448 75.8528 10.5448C75.9711 10.5448 76.0303 10.5448 76.0303 10.5448C76.0948 10.5448 76.2455 10.5501 76.482 10.561C76.7187 10.5716 76.966 10.6094 77.2241 10.6739C77.4823 10.7383 77.7134 10.8406 77.9178 10.9803C78.1221 11.1201 78.2242 11.3191 78.2242 11.5772C78.2457 11.6417 78.208 11.7601 78.1113 11.9321C78.0145 12.1041 77.9231 12.4052 77.8372 12.8354C77.8157 13.0075 77.794 13.1633 77.7725 13.3032C77.7511 13.443 77.7296 13.599 77.7081 13.7711C77.6866 13.9431 77.6651 14.1529 77.6436 14.4002C77.6221 14.6476 77.6007 14.9648 77.5792 15.3519V17.2877C77.5792 17.632 77.5898 17.9814 77.6113 18.3363C77.6328 18.6912 77.6813 19.0138 77.7565 19.3042C77.8318 19.5946 77.9556 19.8311 78.1276 20.014C78.2996 20.1969 78.5255 20.2883 78.8053 20.2883C79.2138 20.2883 79.5365 20.17 79.7732 19.9334C80.0098 19.6967 80.1925 19.4924 80.3216 19.3204C80.5583 18.9978 80.741 18.5944 80.87 18.1106C80.9991 17.6266 81.1175 17.1265 81.2249 16.6102L81.2895 16.2876C81.2924 16.2733 81.2955 16.2592 81.2989 16.2453C81.3335 15.5622 81.3894 14.8986 81.4669 14.255C81.6066 13.0936 81.838 12.0663 82.1606 11.1738C82.4831 10.2812 82.9027 9.57139 83.4188 9.04446C83.935 8.51752 84.5587 8.25389 85.29 8.25389C85.7202 8.25389 86.0483 8.29153 86.2739 8.36697C86.4998 8.44224 86.7096 8.52834 86.9031 8.6251C87.0967 8.72186 87.3065 8.82396 87.5322 8.93154C87.758 9.03896 88.0753 9.12506 88.4839 9.18968C88.9356 9.44782 89.2529 9.75425 89.4356 10.1092C89.6184 10.464 89.7368 10.8459 89.7905 11.2545C89.8443 11.6631 89.8604 12.088 89.8389 12.529C89.8174 12.9698 89.8389 13.4055 89.9035 13.8355C89.9035 13.857 89.952 13.8893 90.0488 13.9323C90.1455 13.9752 90.2584 14.0237 90.3875 14.0775C90.5166 14.1313 90.6295 14.2066 90.7262 14.3033C90.823 14.4001 90.8715 14.5237 90.8715 14.6744V14.8034C90.6563 15.3627 90.5272 15.8575 90.4843 16.2876C90.4413 16.7178 90.4198 17.2341 90.4198 17.8363C90.4198 18.1376 90.436 18.4655 90.4683 18.8204C90.5004 19.1753 90.5542 19.5087 90.6296 19.8205C90.7049 20.1324 90.8178 20.3905 90.9684 20.5949C91.1189 20.7992 91.3125 20.9013 91.5491 20.9013C91.8073 20.9013 92.0384 20.7723 92.2428 20.5141C92.4471 20.256 92.6192 19.9602 92.759 19.627C92.8518 19.4058 92.9351 19.1821 93.0088 18.9564C93.0185 18.8808 93.0375 18.7873 93.0655 18.6752C93.2375 17.9224 93.3451 17.2986 93.3881 16.8039C93.4312 16.3093 93.4633 15.8683 93.4848 15.4811V15.2553C93.4848 15.1478 93.4902 15.0186 93.501 14.8682C93.5116 14.7177 93.5171 14.5348 93.5171 14.3198V13.4809C93.5171 13.2443 93.5171 12.997 93.5171 12.739C93.5171 12.4808 93.4957 12.2012 93.4527 11.9001L93.3559 9.99656C93.3559 9.86749 93.4096 9.74908 93.5173 9.64166C93.6247 9.53408 93.7646 9.43732 93.9367 9.35122C94.1087 9.26528 94.2916 9.20066 94.4851 9.15769C94.6786 9.11473 94.8508 9.09324 95.0014 9.09324C95.3671 9.09324 95.5498 9.32989 95.5498 9.80304V9.96441L95.5175 10.6742V10.8677C95.5175 11.0183 95.5498 11.1097 95.6142 11.1419C95.6788 11.1742 95.8077 11.2118 96.0014 11.2548H96.0982C96.2702 11.2764 96.5498 11.2979 96.937 11.3194C97.3243 11.3409 97.7115 11.3838 98.0985 11.4485C98.4857 11.5131 98.8245 11.6152 99.1147 11.7549C99.4052 11.8946 99.5504 12.0936 99.5504 12.3518C99.5504 12.4377 99.5289 12.5615 99.486 12.7228C99.4428 12.8842 99.3892 13.0456 99.3246 13.2068C99.2601 13.3682 99.2063 13.5132 99.1632 13.6425C99.1202 13.7715 99.0988 13.8575 99.0988 13.9006C98.7115 15.3847 98.518 16.9333 98.518 18.5464C98.518 18.6755 98.5288 18.9122 98.5503 19.2562C98.5718 19.6005 98.6148 19.9554 98.6794 20.3209C98.7439 20.6866 98.8408 21.0092 98.9697 21.2889C99.0988 21.5685 99.2601 21.7084 99.4537 21.7084C99.7762 21.7084 100.067 21.5094 100.325 21.1115C100.583 20.7136 100.809 20.2511 101.002 19.724C101.196 19.1971 101.352 18.6647 101.47 18.1271C101.552 17.7544 101.616 17.4489 101.662 17.2107C101.653 16.9537 101.648 16.7537 101.648 16.6107C101.648 15.7719 101.658 14.8954 101.68 13.9812C101.701 13.0671 101.755 12.2229 101.841 11.4485C101.927 10.6742 102.057 10.0342 102.229 9.52875C102.401 9.02329 102.626 8.77065 102.906 8.77065C102.992 8.77065 103.164 8.79213 103.422 8.8351C103.68 8.87807 103.949 8.94802 104.229 9.04478C104.508 9.14154 104.756 9.27061 104.971 9.43198C105.186 9.59336 105.294 9.79221 105.294 10.0287C105.294 10.0933 105.267 10.1418 105.213 10.1739C105.159 10.2062 105.111 10.2439 105.068 10.2868C104.939 10.3729 104.82 10.5396 104.713 10.787C104.605 11.0344 104.514 11.3893 104.439 11.8517C104.363 12.3141 104.304 12.9164 104.261 13.6585C104.218 14.4006 104.197 15.3092 104.197 16.3847C104.197 17.9978 104.256 19.1486 104.374 19.837C104.492 20.5253 104.734 20.8693 105.1 20.8693C105.487 20.8693 105.837 20.5789 106.149 19.9982C106.461 19.4174 106.745 18.6539 107.004 17.7074C107.262 16.761 107.498 15.6854 107.713 14.481C107.929 13.2766 108.122 12.0612 108.294 10.8353C108.509 10.8353 108.751 10.8461 109.02 10.8676C109.289 10.8891 109.547 10.932 109.794 10.9966C110.042 11.0613 110.251 11.1419 110.423 11.2386C110.595 11.3354 110.681 11.4698 110.681 11.642C110.681 11.7496 110.617 11.8248 110.488 11.8678V21.4178C110.725 21.4392 110.95 21.4877 111.165 21.563C111.381 21.6383 111.488 21.8156 111.488 22.0953L111.489 22.0949ZM107.94 23.6759C107.423 24.0846 106.961 24.6115 106.552 25.2569C106.144 25.9021 105.794 26.585 105.504 27.3055C105.214 28.026 104.993 28.7412 104.843 29.451C104.692 30.1608 104.617 30.7739 104.617 31.29C104.617 31.3976 104.622 31.5749 104.633 31.8224C104.644 32.0697 104.692 32.3117 104.778 32.5484C104.864 32.785 104.988 32.9947 105.149 33.1776C105.311 33.3604 105.553 33.4517 105.875 33.4517C106.348 33.4517 106.719 33.199 106.988 32.6934C107.257 32.188 107.461 31.5964 107.601 30.9189C107.741 30.2414 107.832 29.5638 107.875 28.8863C107.918 28.2088 107.94 27.7087 107.94 27.3859V27.2569V23.6756L107.94 23.6759ZM88.0654 13.5452C88.0654 13.3086 88.0439 13.0289 88.0009 12.7064C87.958 12.3838 87.8827 12.0825 87.7751 11.803C87.6675 11.5234 87.5062 11.2868 87.2912 11.0932C87.076 10.8997 86.7857 10.803 86.42 10.803C85.8176 10.803 85.3283 11.0771 84.9519 11.6257C84.5755 12.1741 84.2798 12.8194 84.0648 13.5615C83.8496 14.3036 83.7099 15.0671 83.6452 15.8523C83.5808 16.6374 83.5485 17.2557 83.5485 17.7076C83.5485 18.0516 83.5646 18.4658 83.5969 18.9496C83.6292 19.4336 83.6884 19.8906 83.7745 20.3208C83.8604 20.7509 83.9841 21.1167 84.1455 21.4178C84.3069 21.7189 84.5166 21.8694 84.7747 21.8694C85.3984 21.8694 85.8771 21.6274 86.2105 21.1435C86.5439 20.6595 86.7965 20.0573 86.9687 19.3368C87.1408 18.6162 87.2645 17.842 87.3398 17.0138C87.4151 16.1857 87.485 15.4275 87.5495 14.7391C87.5924 14.3736 87.6892 14.1423 87.8399 14.0455C87.9904 13.9487 88.0657 13.8788 88.0657 13.8357V13.5454L88.0654 13.5452ZM78.9993 7.35057C78.9993 7.50112 78.924 7.6247 78.7734 7.72162C78.6229 7.81838 78.4562 7.88833 78.2733 7.9313C78.0904 7.97427 77.9131 8.00658 77.741 8.02806C77.569 8.04955 77.4614 8.06037 77.4183 8.06037C76.9666 8.06037 76.5203 7.9313 76.0795 7.67316C75.6386 7.41502 75.2353 7.00633 74.8695 6.44709C74.8266 6.38247 74.7621 6.29654 74.676 6.18895C74.5901 6.08137 74.547 6.00609 74.547 5.96312C74.547 5.8557 74.6276 5.75878 74.7888 5.67268C74.9501 5.58674 75.133 5.50064 75.3372 5.41454C75.5415 5.3286 75.7351 5.26399 75.9179 5.22102C76.1008 5.17789 76.2244 5.1564 76.289 5.1564C76.7192 5.1564 77.144 5.26399 77.5633 5.47916C77.9827 5.69432 78.3216 6.09219 78.5796 6.67292C78.6226 6.73737 78.7033 6.85045 78.8216 7.01166C78.9398 7.17304 78.9989 7.28579 78.9989 7.35041L78.9993 7.35057ZM73.1918 14.8033C72.9983 15.7497 72.6541 16.7177 72.1594 17.7071C71.6648 18.6965 71.0732 19.5892 70.3849 20.3849C69.6966 21.1808 68.933 21.8315 68.0942 22.3369C67.2553 22.8424 66.3841 23.0952 65.4808 23.0952H65.4164C64.8571 23.0952 64.3087 22.9608 63.7709 22.6918C63.2332 22.4229 62.5986 22.1379 61.8674 21.8368C61.7814 21.7938 61.6147 21.7454 61.3672 21.6916C61.1199 21.6379 60.8618 21.5572 60.593 21.4496C60.324 21.3422 60.0767 21.1969 59.8509 21.0141C59.6251 20.8312 59.4798 20.5892 59.4154 20.2881V8.67324C59.4154 8.04938 59.3831 7.46882 59.3186 6.9309C59.2542 6.39314 59.0928 6.00593 58.8347 5.76944H59.1251C59.5982 5.76944 60.0875 5.69416 60.5932 5.54361C61.0986 5.39306 61.5126 5.31778 61.8354 5.31778C62.0504 5.31778 62.2171 5.36624 62.3353 5.463C62.4536 5.55976 62.5129 5.73729 62.5129 5.99543V20.03C62.9216 20.1591 63.228 20.2828 63.4323 20.401C63.6367 20.5193 63.8087 20.6214 63.9486 20.7075C64.0883 20.7934 64.2229 20.8634 64.352 20.9172C64.481 20.971 64.6747 20.9979 64.9327 20.9979C65.9436 20.9979 66.8093 20.7183 67.5299 20.1591C68.2504 19.5998 68.8473 18.8469 69.3206 17.9006C69.7937 16.9542 70.1433 15.8626 70.3691 14.6257C70.5949 13.389 70.7078 12.1038 70.7078 10.7703C70.7078 9.71645 70.5843 8.7377 70.3368 7.83438C70.0895 6.93106 69.67 6.14065 69.0786 5.463C68.487 4.78551 67.6913 4.24775 66.691 3.84989C65.691 3.45186 64.4273 3.24218 62.9001 3.2207H62.6743C59.6414 3.2207 57.3884 3.64005 55.915 4.47891C54.4416 5.31778 53.7049 6.44709 53.7049 7.86668C53.7049 8.14631 53.7533 8.38296 53.8501 8.57648C53.9468 8.77 54.0491 8.96353 54.1565 9.15721C54.2641 9.35073 54.3717 9.55508 54.4793 9.77025C54.5867 9.98541 54.6513 10.2542 54.6728 10.5768C54.6513 10.6198 54.5707 10.7488 54.431 10.964C54.2912 11.1792 54.1782 11.2974 54.0922 11.3189C54.0493 11.3404 53.9525 11.3511 53.8018 11.3511C53.5651 11.3511 53.291 11.2811 52.9791 11.1414C52.6671 11.0016 52.3715 10.808 52.0917 10.5606C51.8121 10.3132 51.581 10.0176 51.3981 9.67332C51.2152 9.32925 51.1238 8.95286 51.1238 8.54417C51.1238 7.51179 51.5002 6.57083 52.2531 5.72114C53.0059 4.87161 53.99 4.14017 55.2052 3.52729C56.4205 2.91426 57.7755 2.44112 59.2705 2.1077C60.7654 1.77429 62.2549 1.60758 63.7389 1.60758C64.6423 1.60758 65.5457 1.68835 66.4491 1.84956C67.3524 2.01094 68.2074 2.27974 69.0141 2.65612C69.8207 3.0325 70.5466 3.51647 71.192 4.10802C71.8373 4.69957 72.3534 5.42536 72.7406 6.28588C73.0847 6.97403 73.3214 7.7108 73.4504 8.49587C73.5795 9.28095 73.644 10.0822 73.644 10.8994C73.644 12.1899 73.4934 13.4913 73.1923 14.8033H73.1918ZM54.1564 22.0949C54.1564 22.267 54.1134 22.3854 54.0273 22.4498C53.9412 22.5143 53.8444 22.5574 53.7369 22.5789C53.6294 22.6004 53.5163 22.6165 53.3981 22.6274C53.2799 22.638 53.1992 22.6758 53.1563 22.7403V27.8702C53.1563 28.2789 53.1509 28.7252 53.1401 29.2091C53.1295 29.693 53.081 30.1717 52.9949 30.6448C52.909 31.1179 52.7746 31.5589 52.5915 31.9676C52.4087 32.3763 52.1452 32.7096 51.8011 32.9679C51.7797 32.9894 51.7097 33.0378 51.5915 33.1129C51.4732 33.1882 51.344 33.2743 51.2043 33.3711C51.0645 33.4678 50.9301 33.5594 50.8009 33.6454C50.6718 33.7313 50.5857 33.7851 50.5428 33.8067C50.2417 34.0003 49.9997 34.2261 49.8168 34.4842C49.6339 34.7424 49.4028 34.8714 49.1232 34.8714C49.0157 34.8714 48.935 34.8661 48.8812 34.8553C48.8276 34.8445 48.7738 34.8283 48.7198 34.8068C48.666 34.7853 48.5907 34.7584 48.494 34.7261C48.3972 34.6939 48.2627 34.6561 48.0906 34.6131C47.1227 34.4196 46.4505 34.1345 46.0741 33.7581C45.6978 33.3817 45.5096 32.7742 45.5096 31.9352C45.5096 31.0748 45.6386 30.1822 45.8966 29.2572C46.1548 28.3322 46.5096 27.4397 46.9613 26.5794C47.413 25.719 47.9507 24.9178 48.5744 24.1757C49.1983 23.4338 49.8758 22.8046 50.6071 22.2883V18.1586C50.4996 18.5671 50.3704 19.0404 50.22 19.5782C50.0695 20.1159 49.8813 20.6212 49.6554 21.0945C49.4296 21.5677 49.166 21.9657 48.8649 22.2883C48.5638 22.6109 48.2089 22.7723 47.8002 22.7723C47.4345 22.7723 47.0366 22.6432 46.6064 22.3851C46.1762 22.1269 45.7892 21.8688 45.445 21.6108C45.1868 21.3956 44.9825 21.0569 44.8319 20.5946C44.6814 20.1321 44.5685 19.6428 44.4932 19.1265C44.4179 18.6102 44.3694 18.1154 44.3479 17.6423C44.3265 17.1692 44.3156 16.8251 44.3156 16.6099C44.3156 15.7711 44.3265 14.8945 44.3479 13.9804C44.3694 13.0663 44.4232 12.2221 44.5093 11.4477C44.5953 10.6734 44.7245 10.0334 44.8965 9.52794C45.0686 9.02249 45.2944 8.76984 45.574 8.76984C45.66 8.76984 45.8322 8.79133 46.0903 8.8343C46.3484 8.87726 46.6172 8.94721 46.8969 9.04397C47.1765 9.14073 47.4238 9.2698 47.639 9.43118C47.8541 9.59255 47.9616 9.79141 47.9616 10.0279C47.9616 10.0925 47.9346 10.141 47.8809 10.1731C47.8271 10.2054 47.7787 10.2431 47.7357 10.286C47.6067 10.3721 47.4882 10.5388 47.3808 10.7862C47.2732 11.0336 47.1818 11.3885 47.1065 11.8509C47.0313 12.3133 46.9721 12.9155 46.9292 13.6577C46.8862 14.3998 46.8647 15.3084 46.8647 16.3839C46.8647 17.997 46.9238 19.1478 47.0421 19.8361C47.1603 20.5245 47.4023 20.8685 47.768 20.8685C48.1552 20.8685 48.5048 20.5781 48.8166 19.9974C49.1285 19.4166 49.4135 18.653 49.6716 17.7066C49.9297 16.7601 50.1662 15.6846 50.3814 14.4802C50.5966 13.2758 50.7901 12.0604 50.9621 10.8345C51.1773 10.8345 51.4193 10.8453 51.6881 10.8668C51.9569 10.8882 52.215 10.9312 52.4623 10.9958C52.7096 11.0604 52.9195 11.1411 53.0913 11.2378C53.2634 11.3346 53.3495 11.469 53.3495 11.6412C53.3495 11.7488 53.285 11.824 53.156 11.867V21.417C53.3926 21.4384 53.6183 21.4869 53.8335 21.5622C54.0486 21.6375 54.156 21.8148 54.156 22.0944L54.1564 22.0949ZM50.6074 23.6759C50.0911 24.0846 49.6288 24.6115 49.2201 25.2569C48.8114 25.9021 48.4618 26.585 48.1716 27.3055C47.8813 28.026 47.6608 28.7412 47.5102 29.451C47.3597 30.1608 47.2844 30.7739 47.2844 31.29C47.2844 31.3976 47.2897 31.5749 47.3005 31.8224C47.3114 32.0697 47.3597 32.3117 47.4458 32.5484C47.5317 32.785 47.6554 32.9947 47.8168 33.1776C47.9782 33.3604 48.2202 33.4517 48.5428 33.4517C49.0159 33.4517 49.387 33.199 49.6559 32.6934C49.9247 32.188 50.1291 31.5964 50.269 30.9189C50.4087 30.2414 50.5001 29.5638 50.5431 28.8863C50.5861 28.2088 50.6075 27.7087 50.6075 27.3859V27.2569V23.6756L50.6074 23.6759ZM43.0577 17.191C43.0577 17.7717 43.0093 18.3901 42.9125 19.0461C42.8158 19.7021 42.6221 20.3043 42.3318 20.8529C42.0415 21.4013 41.6328 21.8584 41.1057 22.224C40.5788 22.5896 39.8852 22.7724 39.0248 22.7724C38.2505 22.7724 37.686 22.7133 37.3311 22.5949C36.9762 22.4766 36.6804 22.3422 36.4437 22.1915C36.4437 22.1915 36.3901 22.2185 36.2824 22.2723C36.1749 22.3259 36.0565 22.3852 35.9275 22.4497C35.7984 22.5141 35.6748 22.5734 35.5564 22.6272C35.4382 22.6808 35.3467 22.7078 35.2821 22.7078C35.1316 22.7078 34.9972 22.6542 34.8788 22.5464C34.7605 22.439 34.6691 22.2185 34.6046 21.8851C34.5402 21.5517 34.4917 21.0894 34.4594 20.4978C34.4457 20.2452 34.4349 19.9583 34.4269 19.6371C34.4019 19.7021 34.3751 19.7685 34.3465 19.8365C34.1745 20.245 33.954 20.6377 33.6852 21.0141C33.4162 21.3905 33.1044 21.7077 32.7495 21.9659C32.3946 22.224 32.0021 22.3529 31.5719 22.3529C30.9266 22.3529 30.362 22.1056 29.8782 21.611C29.3942 21.1163 29.0985 20.4172 28.9909 19.5137C28.8618 19.858 28.7113 20.2558 28.5392 20.7075C28.3672 21.1591 28.1522 21.5787 27.894 21.9657C27.6359 22.3527 27.3401 22.6808 27.0067 22.9496C26.6733 23.2186 26.2808 23.353 25.8291 23.353C25.7 23.353 25.6033 23.3422 25.5387 23.3207C25.4742 23.2992 25.4043 23.2722 25.329 23.2401C25.2537 23.2078 25.1676 23.1809 25.0708 23.1593C24.9741 23.1378 24.8397 23.1272 24.6675 23.1272C24.1512 23.1272 23.7157 22.9605 23.3608 22.627C23.0059 22.2936 22.721 21.8688 22.5058 21.3527C22.2906 20.8364 22.1347 20.2718 22.038 19.6588C21.9412 19.0457 21.8927 18.4703 21.8927 17.9327C21.8927 16.6422 21.9627 15.4163 22.1024 14.2547C22.2422 13.0932 22.4735 12.066 22.7961 11.1735C23.1187 10.2809 23.5382 9.57107 24.0543 9.04413C24.5706 8.5172 25.1943 8.25357 25.9255 8.25357C26.3557 8.25357 26.6838 8.2912 26.9095 8.36664C27.1353 8.44192 27.3451 8.52802 27.5387 8.62478C27.7322 8.72154 27.942 8.82363 28.1677 8.93122C28.3935 9.03864 28.7108 9.12474 29.1195 9.18936C29.5711 9.44749 29.8884 9.75393 30.0711 10.1088C30.2539 10.4637 30.3723 10.8456 30.426 11.2541C30.4798 11.6628 30.4959 12.0877 30.4744 12.5287C30.453 12.9695 30.4744 13.4052 30.5391 13.8352C30.5391 13.8567 30.5875 13.889 30.6843 13.9319C30.781 13.9749 30.894 14.0234 31.023 14.0772C31.1521 14.131 31.265 14.2062 31.3618 14.303C31.4585 14.3998 31.507 14.5233 31.507 14.674V14.8031C31.2918 15.3624 31.1628 15.8572 31.1198 16.2873C31.0768 16.7175 31.0553 17.2338 31.0553 17.836C31.0553 18.1373 31.0715 18.4652 31.1038 18.8201C31.1359 19.175 31.1897 19.5084 31.2652 19.8202C31.3404 20.1321 31.4534 20.3902 31.6039 20.5946C31.7545 20.7989 31.948 20.901 32.1846 20.901C32.4428 20.901 32.6739 20.7719 32.8783 20.5138C33.0826 20.2557 33.2547 19.9599 33.3946 19.6266C33.5343 19.2932 33.6527 18.9545 33.7495 18.6102C33.8462 18.2662 33.9053 18.008 33.9268 17.836C33.97 17.5779 34.0774 17.4489 34.2496 17.4489C34.3051 17.4489 34.3593 17.4648 34.4121 17.4964C34.4171 16.0216 34.4383 14.113 34.4754 11.7706C34.5185 9.06045 34.5615 5.56526 34.6045 1.28483C34.6045 1.06966 34.583 0.940753 34.54 0.897622C34.4971 0.854653 34.4754 0.811684 34.4754 0.768553C34.4754 0.639485 34.5991 0.553385 34.8465 0.510416C35.0938 0.467447 35.2498 0.445801 35.3143 0.445801C35.3787 0.445801 35.5509 0.467447 35.8305 0.510416C36.1102 0.553385 36.3951 0.617838 36.6856 0.703938C36.976 0.789876 37.2395 0.902791 37.4761 1.04268C37.7128 1.18241 37.831 1.34912 37.831 1.5428C37.831 1.5428 37.8094 1.60726 37.7664 1.73633C37.7234 1.86539 37.6697 2.02128 37.605 2.20414C37.5406 2.387 37.4813 2.55904 37.4277 2.72041C37.3739 2.88179 37.3469 2.99471 37.3469 3.05916C37.2395 3.87638 37.1587 4.58101 37.1049 5.1724C37.0513 5.76395 37.0082 6.38764 36.9758 7.04365C36.9435 7.69982 36.9112 8.45791 36.8791 9.31826C36.8468 10.1786 36.7983 11.2971 36.7339 12.6737C36.8413 12.4587 36.9435 12.1844 37.0403 11.851C37.1371 11.5176 37.2608 11.1897 37.4114 10.8671C37.5619 10.5443 37.7501 10.2647 37.9759 10.0282C38.2018 9.79157 38.5084 9.67332 38.8956 9.67332C39.0676 9.67332 39.3096 9.73794 39.6215 9.86684C39.9334 9.99591 40.1753 10.082 40.3475 10.125C40.9498 10.2541 41.4283 10.5928 41.7832 11.1412C42.1381 11.6896 42.4124 12.3242 42.6061 13.0448C42.7996 13.7652 42.9234 14.502 42.9771 15.2548C43.0309 16.0077 43.0579 16.6529 43.0579 17.1906L43.0577 17.191ZM40.7025 16.4166C40.7025 16.3521 40.6972 16.1799 40.6864 15.9003C40.6756 15.6207 40.6541 15.2981 40.6219 14.9323C40.5896 14.5666 40.5412 14.1741 40.4767 13.7547C40.4121 13.3354 40.3207 12.9535 40.2024 12.6093C40.0842 12.2652 39.9389 11.9802 39.7669 11.7543C39.5949 11.5284 39.3797 11.4155 39.1216 11.4155C38.7775 11.4155 38.4547 11.7166 38.1536 12.3188C37.8525 12.9212 37.5891 13.647 37.3631 14.4967C37.1372 15.3462 36.9597 16.2227 36.8308 17.1262C36.7017 18.0295 36.6373 18.7716 36.6373 19.3523C36.6373 19.589 36.6426 19.8416 36.6534 20.1106C36.6642 20.3796 36.6911 20.6322 36.7342 20.8689C36.9923 20.9763 37.1859 21.0679 37.3149 21.143C37.444 21.2183 37.5516 21.2829 37.6377 21.3365C37.7236 21.3903 37.815 21.4279 37.9118 21.4494C38.0086 21.4711 38.1323 21.4817 38.2829 21.4817C38.8421 21.4817 39.2831 21.2612 39.6057 20.8204C39.9283 20.3796 40.1703 19.8739 40.3316 19.304C40.493 18.734 40.5951 18.1694 40.6381 17.6103C40.681 17.0511 40.7025 16.653 40.7025 16.4166ZM28.7004 13.5452C28.7004 13.3086 28.6789 13.0289 28.636 12.7064C28.593 12.3838 28.5177 12.0825 28.4102 11.803C28.3026 11.5234 28.1412 11.2868 27.9262 11.0932C27.711 10.8997 27.4207 10.803 27.055 10.803C26.4526 10.803 25.9633 11.0771 25.587 11.6257C25.2106 12.1741 24.9148 12.8194 24.6998 13.5615C24.4846 14.3036 24.3449 15.0671 24.2803 15.8523C24.2158 16.6374 24.1835 17.2557 24.1835 17.7076C24.1835 18.0516 24.1997 18.4658 24.232 18.9496C24.2643 19.4336 24.3234 19.8906 24.4095 20.3208C24.4954 20.7509 24.6192 21.1167 24.7806 21.4178C24.9419 21.7189 25.1516 21.8694 25.4097 21.8694C26.0334 21.8694 26.5121 21.6274 26.8455 21.1435C27.1789 20.6595 27.4316 20.0573 27.6038 19.3368C27.7758 18.6162 27.8995 17.842 27.9748 17.0138C28.0501 16.1857 28.12 15.4275 28.1845 14.7391C28.2274 14.3736 28.3242 14.1423 28.4749 14.0455C28.6255 13.9487 28.7008 13.8788 28.7008 13.8357V13.5454L28.7004 13.5452ZM18.9891 6.51171C18.9891 5.56526 18.5266 4.9254 17.6017 4.59199C16.6767 4.25858 15.3217 4.09187 13.5364 4.09187H12.4717C12.1921 4.09187 11.9071 4.09187 11.6167 4.09187C11.3264 4.09187 11.0306 4.11335 10.7295 4.15648C10.7725 4.22094 10.8318 4.28555 10.9069 4.35001C10.9822 4.41462 11.0521 4.51671 11.1166 4.65644C11.1812 4.79634 11.2348 5.00068 11.2779 5.26948C11.3209 5.53828 11.3424 5.90933 11.3424 6.38247V12.7385C11.3424 12.9105 11.3909 13.0235 11.4876 13.0772C11.5844 13.131 11.9339 13.158 12.5362 13.158C13.0739 13.158 13.7139 12.9698 14.4559 12.5934C15.198 12.2171 15.9024 11.7169 16.5691 11.0931C17.2359 10.4694 17.8058 9.75958 18.2791 8.96369C18.7523 8.16795 18.9889 7.35057 18.9889 6.51171H18.9891ZM17.5372 18.1266C17.5372 17.804 17.3758 17.4598 17.0532 17.0942C16.7306 16.7285 16.3543 16.3844 15.9241 16.0617C15.4939 15.7391 15.0746 15.4756 14.6659 15.2713C14.2573 15.0669 13.9561 14.9648 13.7626 14.9648C13.2679 14.9648 12.7838 14.997 12.3106 15.0616C11.8375 15.126 11.5794 15.1798 11.5364 15.223C11.5149 15.2444 11.4934 15.3627 11.4718 15.5779C11.4503 15.793 11.4288 16.0671 11.4073 16.4006C11.3858 16.734 11.3697 17.0942 11.3589 17.4814C11.3482 17.8686 11.3427 18.245 11.3427 18.6106C11.3427 18.8257 11.3642 19.0677 11.4072 19.3365C11.4501 19.6053 11.5362 19.8634 11.6653 20.1108C11.7944 20.3582 11.9717 20.5679 12.1977 20.7398C12.4236 20.9118 12.7193 20.9979 13.0849 20.9979L13.7302 20.9333C13.9669 20.9333 14.2948 20.8742 14.7142 20.7559C15.1337 20.6377 15.553 20.4602 15.9724 20.2235C16.3917 19.9869 16.7575 19.6912 17.0694 19.3364C17.3813 18.9815 17.5372 18.5781 17.5372 18.1264V18.1266Z" fill="white"/>
</svg>
