<svg width="27" height="27" viewBox="0 0 27 27" fill="none" xmlns="http://www.w3.org/2000/svg">
<path fill-rule="evenodd" clip-rule="evenodd" d="M26.6631 13.3316C26.6631 5.96882 20.6943 0 13.3316 0C5.96882 0 0 5.96882 0 13.3316C0 20.6943 5.96882 26.6631 13.3316 26.6631C13.3821 26.6631 13.4322 26.6616 13.4826 26.6612C12.7243 24.8009 12.5208 23.7482 12.525 22.6726C10.105 22.3872 8.33163 21.5532 7.04886 20.518C5.06744 18.9188 4.2583 16.8384 4.03424 15.5322C3.74348 13.8378 3.81213 12.3337 4.14183 11.0148C4.67555 8.87989 5.89047 7.24158 7.3742 6.06833C8.84452 4.90558 10.5791 4.20337 12.1707 3.93038C13.291 3.73815 14.3539 3.75575 15.2209 3.97254C15.574 4.0609 15.7889 4.4187 15.7007 4.77199C15.6123 5.12511 15.2545 5.33995 14.9012 5.25175C14.2081 5.07842 13.3343 5.06841 12.3927 5.22995C10.9943 5.46999 9.47354 6.08432 8.18916 7.09991C6.91834 8.10483 5.87804 9.50747 5.42121 11.3346C5.13383 12.484 5.076 13.8065 5.33414 15.3104C5.5212 16.4009 6.2016 18.1417 7.87432 19.4918C8.9731 20.3783 10.5019 21.0963 12.604 21.3567L12.6368 21.0117C12.7096 20.2517 12.7978 19.3341 12.8183 18.0774C12.8392 16.8036 12.372 15.6831 11.7131 14.7547C10.7263 13.3642 9.32138 12.4043 8.43631 11.9817C8.10726 11.8252 7.96769 11.4314 8.12422 11.1025C8.28075 10.7734 8.67458 10.6339 9.00347 10.7904C9.86705 11.2028 11.1597 12.0585 12.2271 13.2833C12.2769 12.1199 12.5478 10.8621 13.1749 9.6396C14.1273 7.78257 15.8895 6.01244 18.9238 4.7938C19.2613 4.65859 19.6448 4.82255 19.78 5.16L19.7806 5.16145C19.8205 5.24998 19.8607 5.3448 19.9006 5.44512C20.4528 6.83095 20.783 8.92852 20.1129 11.072C19.8981 11.7593 19.5814 12.451 19.1382 13.1245C19.6562 13.0027 20.2127 12.914 20.8108 12.8637C21.1865 12.8321 21.5761 12.8156 21.9795 12.8156C22.3439 12.8156 22.6395 13.1112 22.6395 13.4758C22.6395 13.5033 22.6377 13.5304 22.6345 13.5572C22.5597 15.3577 21.8323 18.1851 19.8 20.2173C18.4449 21.5726 16.5221 22.576 13.8486 22.6967C13.8574 23.6677 14.0672 24.6453 14.8053 26.4105C14.828 26.4649 14.8427 26.5208 14.8502 26.5767C21.4981 25.8229 26.6634 20.1812 26.6634 13.3317L26.6631 13.3316ZM13.5692 26.6599C13.6412 26.6586 13.7131 26.6568 13.7848 26.6544C13.7131 26.6568 13.6411 26.6587 13.5692 26.6599ZM13.8709 26.6511C13.9712 26.6471 14.0712 26.6421 14.1709 26.6358C14.0712 26.6419 13.9712 26.6471 13.8709 26.6511ZM14.235 26.6318C14.3132 26.6266 14.3914 26.6206 14.4693 26.614C14.3914 26.6206 14.3132 26.6264 14.235 26.6318ZM14.5752 26.6046C14.6529 26.5974 14.7305 26.5898 14.8077 26.5812C14.7303 26.5898 14.6529 26.5975 14.5752 26.6046ZM18.8544 10.6797C19.3674 9.03868 19.1884 7.43268 18.8046 6.27687C16.4781 7.33947 15.1022 8.76165 14.3454 10.2376C13.3256 12.2261 13.4112 14.3234 13.805 15.7619L13.8691 15.7328C16.8492 14.3702 18.2851 12.5004 18.8544 10.6799V10.6797ZM18.8663 19.2836C20.3977 17.7522 21.0731 15.6937 21.2648 14.1546C21.1474 14.1609 21.0321 14.169 20.9188 14.1783C18.1444 14.4114 16.4261 15.5705 15.4057 16.9914C14.3958 18.398 14.0499 20.0727 14.0389 21.3681C16.203 21.2148 17.7629 20.3869 18.8663 19.2834V19.2836Z" fill="#7A7E84"/>
</svg>
