<svg width="21" height="21" viewBox="0 0 21 21" fill="none" xmlns="http://www.w3.org/2000/svg">
<path d="M0 0V21H21V0H0ZM17.4469 4.97344L16.3219 6.05156C16.2234 6.12656 16.1766 6.24844 16.1953 6.36563V14.3016C16.1766 14.4234 16.2234 14.5453 16.3219 14.6156L17.4234 15.6937V15.9328H11.8922V15.7031L13.0312 14.5969C13.1438 14.4844 13.1437 14.4516 13.1437 14.2828V7.86563L9.975 15.9094H9.54844L5.85938 7.86563V13.2562C5.82656 13.4812 5.90625 13.7109 6.06562 13.875L7.54688 15.6703V15.9094H3.3375V15.6703L4.81875 13.875C4.97813 13.7109 5.04844 13.4812 5.01094 13.2562V7.02188C5.02969 6.84844 4.96406 6.67969 4.83281 6.5625L3.51562 4.97344V4.73438H7.60781L10.7672 11.6719L13.5469 4.73906H17.4469V4.97344Z" fill="#7A7E84"/>
</svg>
