<svg width="39" height="39" viewBox="0 0 39 39" fill="none" xmlns="http://www.w3.org/2000/svg">
<path d="M34.125 0H4.875C2.18637 0 0 2.18637 0 4.875V34.125C0 36.8136 2.18637 39 4.875 39H34.125C36.8136 39 39 36.8136 39 34.125V4.875C39 2.18637 36.8136 0 34.125 0ZM4.875 3.25H34.125C35.0212 3.25 35.75 3.97879 35.75 4.875V16.3896L30.3989 11.0386C29.7642 10.4042 28.7358 10.4042 28.1011 11.0386L16.6562 22.4834L12.5239 18.3511C11.8892 17.7167 10.8608 17.7167 10.2261 18.3511L3.25 25.3271V4.875C3.25 3.97879 3.97879 3.25 4.875 3.25ZM34.125 35.75H4.875C3.97879 35.75 3.25 35.0212 3.25 34.125V29.9229L11.375 21.7979L20.7886 31.2106C21.1064 31.5292 21.5213 31.6875 21.9375 31.6875C22.3537 31.6875 22.7686 31.5292 23.0864 31.2114C23.7208 30.5767 23.7208 29.5483 23.0864 28.9136L18.9541 24.7812L29.25 14.4861L35.75 20.9861V34.125C35.75 35.0212 35.0212 35.75 34.125 35.75Z" fill="black"/>
<path d="M12.1034 10.0862C12.1034 11.9429 10.5981 13.4483 8.74137 13.4483C6.88468 13.4483 5.3793 11.9429 5.3793 10.0862C5.3793 8.22952 6.88468 6.72414 8.74137 6.72414C10.5981 6.72414 12.1034 8.22952 12.1034 10.0862Z" fill="black"/>
</svg>
